<svg id="Capa_1" enable-background="new 0 0 512 512" height="512" viewBox="0 0 512 512" width="512" xmlns="http://www.w3.org/2000/svg"><g><path d="m512 256c0 128.384-94.507 234.688-217.738 253.152-24.406-10.603-52.118-10.603-76.523 0-123.232-18.464-217.739-124.768-217.739-253.152 0-141.387 114.613-256 256-256s256 114.613 256 256z" fill="#654baa"/><g><g><path d="m512 256c0 65.237-24.405 124.779-64.576 169.984-5.803 6.528-11.925 12.758-18.357 18.645-5.888 5.419-12.043 10.56-18.421 15.392-2.837 2.165-5.717 4.256-8.64 6.293-31.498 21.899-68.138 36.907-107.744 42.837-24.406-10.603-52.118-10.603-76.523 0-39.605-5.931-76.245-20.939-107.744-42.837-2.923-2.037-5.803-4.128-8.64-6.293-6.379-4.832-12.533-9.973-18.421-15.392-6.432-5.888-12.555-12.117-18.357-18.645-40.172-45.205-64.577-104.747-64.577-169.984 0-46.219 12.245-89.568 33.675-126.997 44.128 77.066 127.168 129.002 222.325 129.002s178.208-51.936 222.325-129.003c21.43 37.43 33.675 80.779 33.675 126.998z" fill="#513390"/></g></g><g><path d="m427.286 315.204c0 5.263-2.137 10.038-5.592 13.493-3.456 3.456-8.231 5.593-13.508 5.593h-304.371c-10.554 0-19.1-8.546-19.1-19.086 0-5.277 2.137-10.052 5.592-13.508 3.456-3.456 8.231-5.593 13.508-5.593h304.371c10.554.001 19.1 8.548 19.1 19.101z" fill="#c8c6cb"/><path d="m427.286 315.204c0 5.263-2.137 10.038-5.592 13.493-3.456 3.456-8.231 5.593-13.508 5.593h-152.186v-38.186h152.186c10.554 0 19.1 8.547 19.1 19.1z" fill="#99989b"/><g><g><path d="m309.172 344.299v54.132c0 6.754-5.478 12.217-12.217 12.217h-81.908c-6.74 0-12.217-5.464-12.217-12.217v-54.132z" fill="#c8c6cb"/><path d="m309.172 344.299v54.132c0 6.754-5.478 12.217-12.217 12.217h-40.954v-66.349z" fill="#99989b"/></g></g><g><path d="m429.067 444.629c-5.888 5.419-12.043 10.56-18.421 15.392l-14.165-33.675c-1.067-2.56-3.584-4.224-6.357-4.224h-122.647v89.621c-3.808.172-7.626.257-11.477.257-3.84 0-7.669-.085-11.467-.256v-89.621h-122.645c-2.784 0-5.301 1.664-6.368 4.224l-14.165 33.675c-6.379-4.832-12.533-9.973-18.421-15.392l11.435-27.189c4.672-11.094 15.467-18.262 27.52-18.262h268.235c12.043 0 22.837 7.168 27.509 18.262z" fill="#00b9ff"/></g><path d="m429.067 444.629c-5.888 5.419-12.043 10.56-18.421 15.392l-14.165-33.675c-1.067-2.56-3.584-4.224-6.357-4.224h-122.647v89.621c-3.808.172-7.626.257-11.477.257v-112.821h134.123c12.043 0 22.837 7.168 27.509 18.262z" fill="#0092ff"/><g><path d="m295.488 504c0 1.856-.438 3.605-1.227 5.152-8.79 1.323-17.728 2.197-26.784 2.592-3.808.171-7.626.256-11.477.256-3.84 0-7.669-.085-11.467-.256-9.067-.395-18.005-1.269-26.795-2.592-.789-1.547-1.227-3.296-1.227-5.152 0-6.336 5.131-11.477 11.467-11.477h56.043c3.168 0 6.037 1.28 8.107 3.36 2.08 2.079 3.36 4.949 3.36 8.117z" fill="#c8c6cb"/></g><g><g><path d="m295.488 504c0 1.845-.438 3.605-1.227 5.152-8.79 1.323-17.728 2.197-26.784 2.592-3.808.171-7.626.256-11.477.256v-19.467h28.021c3.168 0 6.037 1.269 8.117 3.35 2.081 2.079 3.35 4.949 3.35 8.117z" fill="#99989b"/></g></g><g><g><path d="m149.659 131.601v220.212c0 8.202 6.654 14.856 14.856 14.856h182.972c8.202 0 14.855-6.654 14.855-14.856v-220.212c0-58.72-47.607-106.327-106.342-106.327s-106.341 47.607-106.341 106.327z" fill="#dddddf"/><path d="m149.659 131.601v220.212c0 8.202 6.654 14.856 14.856 14.856h91.486v-341.395c-58.735 0-106.342 47.607-106.342 106.327z" fill="#eee"/><path d="m149.659 131.601v220.212c0 8.202 6.654 14.856 14.856 14.856h45.743c-4.101 0-7.428-6.654-7.428-14.856v-220.212c0-58.72 23.804-106.327 53.171-106.327-58.735 0-106.342 47.607-106.342 106.327z" fill="#fff"/><g><path d="m311.695 240.424c0 30.758-24.937 55.68-55.695 55.68s-55.68-24.922-55.68-55.68 24.922-55.695 55.68-55.695c30.759 0 55.695 24.936 55.695 55.695z" fill="#fff"/><path d="m311.695 240.424c0 30.758-24.937 55.68-55.695 55.68v-111.375c30.759 0 55.695 24.936 55.695 55.695z" fill="#eee"/><path d="m289.555 240.424c0 18.527-15.013 33.54-33.554 33.54-18.526 0-33.54-15.013-33.54-33.54s15.013-33.555 33.54-33.555c18.541 0 33.554 15.028 33.554 33.555z" fill="#3c3b40"/></g><path d="m255.352 131.601-8 15.632 8 16.489h106.991v-32.121z" fill="#99989b"/><path d="m188.891 193.491v93.866c0 4.832-3.915 8.747-8.761 8.747h-30.471v-111.375h30.471c4.847 0 8.761 3.929 8.761 8.762z" fill="#c8c6cb"/><path d="m362.343 184.729v111.375h-30.471c-4.833 0-8.762-3.915-8.762-8.747v-93.866c0-4.833 3.929-8.762 8.762-8.762z" fill="#99989b"/><g><g fill="#00b9ff"><ellipse cx="182.26" cy="321.564" rx="12.727" ry="12.727" transform="matrix(.23 -.973 .973 .23 -172.577 425.067)"/><circle cx="219.133" cy="321.564" r="12.727"/><path d="m268.734 321.557c0 7.041-5.693 12.734-12.734 12.734-7.026 0-12.719-5.693-12.719-12.734 0-7.026 5.693-12.719 12.719-12.719 7.042 0 12.734 5.693 12.734 12.719z"/></g><circle cx="292.879" cy="321.564" fill="#0092ff" r="12.727"/><ellipse cx="329.752" cy="321.564" fill="#0092ff" rx="12.727" ry="12.727" transform="matrix(.707 -.707 .707 .707 -130.798 327.354)"/></g><path d="m149.659 344.299v7.514c0 8.202 6.654 14.856 14.856 14.856h182.972c8.202 0 14.855-6.654 14.855-14.856v-7.514z" fill="#0076ff"/></g><g fill="#eee"><path d="m170.623 218.025c0 6.161-4.995 11.156-11.156 11.156h-9.808v-22.312h9.808c6.161 0 11.156 4.995 11.156 11.156z"/><path d="m170.623 262.65c0 6.161-4.995 11.156-11.156 11.156h-9.808v-22.312h9.808c6.161 0 11.156 4.995 11.156 11.156z"/><path d="m362.343 206.869v22.312h-9.794c-6.161 0-11.156-4.995-11.156-11.156 0-6.161 4.995-11.156 11.156-11.156z"/><path d="m362.343 251.494v22.312h-9.794c-6.161 0-11.156-4.995-11.156-11.156 0-6.161 4.995-11.156 11.156-11.156z"/></g><path d="m202.537 131.601-16 15.961 16 16.16h53.464v-32.121z" fill="#c8c6cb"/><path d="m289.555 240.424c0 18.527-15.013 33.54-33.554 33.54v-67.095c18.541 0 33.554 15.028 33.554 33.555z" fill="#2b2b2b"/><ellipse cx="244.971" cy="249.328" fill="#fff" rx="11.036" ry="11.036" transform="matrix(.707 -.707 .707 .707 -104.551 246.248)"/><path d="m149.659 131.601h53.171v32.12h-53.171z" fill="#eee"/><path d="m149.659 344.299v7.514c0 8.202 6.654 14.856 14.856 14.856h91.486v-22.37z" fill="#0092ff"/><path d="m149.659 344.299v7.514c0 8.202 6.654 14.856 14.856 14.856h45.743c-4.101 0-7.428-6.654-7.428-14.856v-7.514z" fill="#00b9ff"/><path d="m268.734 321.557c0 7.041-5.693 12.734-12.734 12.734v-25.453c7.042 0 12.734 5.693 12.734 12.719z" fill="#0092ff"/></g></g></g></svg>